%TF.GenerationSoftware,KiCad,Pcbnew,9.0.6*%
%TF.CreationDate,2026-02-16T10:38:34-06:00*%
%TF.ProjectId,BackPorch,4261636b-506f-4726-9368-2e6b69636164,rev?*%
%TF.SameCoordinates,Original*%
%TF.FileFunction,Legend,Top*%
%TF.FilePolarity,Positive*%
%FSLAX46Y46*%
G04 Gerber Fmt 4.6, Leading zero omitted, Abs format (unit mm)*
G04 Created by KiCad (PCBNEW 9.0.6) date 2026-02-16 10:38:34*
%MOMM*%
%LPD*%
G01*
G04 APERTURE LIST*
%ADD10C,0.250000*%
%ADD11C,0.500000*%
%ADD12C,0.150000*%
%ADD13C,0.120000*%
%ADD14C,0.127000*%
%ADD15C,0.200000*%
%ADD16C,0.508000*%
%ADD17C,0.152400*%
%ADD18C,0.400000*%
G04 APERTURE END LIST*
D10*
X181926377Y-93912238D02*
X181831139Y-93864619D01*
X181831139Y-93864619D02*
X181688282Y-93864619D01*
X181688282Y-93864619D02*
X181545425Y-93912238D01*
X181545425Y-93912238D02*
X181450187Y-94007476D01*
X181450187Y-94007476D02*
X181402568Y-94102714D01*
X181402568Y-94102714D02*
X181354949Y-94293190D01*
X181354949Y-94293190D02*
X181354949Y-94436047D01*
X181354949Y-94436047D02*
X181402568Y-94626523D01*
X181402568Y-94626523D02*
X181450187Y-94721761D01*
X181450187Y-94721761D02*
X181545425Y-94817000D01*
X181545425Y-94817000D02*
X181688282Y-94864619D01*
X181688282Y-94864619D02*
X181783520Y-94864619D01*
X181783520Y-94864619D02*
X181926377Y-94817000D01*
X181926377Y-94817000D02*
X181973996Y-94769380D01*
X181973996Y-94769380D02*
X181973996Y-94436047D01*
X181973996Y-94436047D02*
X181783520Y-94436047D01*
X182402568Y-94864619D02*
X182402568Y-93864619D01*
X182402568Y-93864619D02*
X182973996Y-94864619D01*
X182973996Y-94864619D02*
X182973996Y-93864619D01*
X183450187Y-94864619D02*
X183450187Y-93864619D01*
X183450187Y-93864619D02*
X183688282Y-93864619D01*
X183688282Y-93864619D02*
X183831139Y-93912238D01*
X183831139Y-93912238D02*
X183926377Y-94007476D01*
X183926377Y-94007476D02*
X183973996Y-94102714D01*
X183973996Y-94102714D02*
X184021615Y-94293190D01*
X184021615Y-94293190D02*
X184021615Y-94436047D01*
X184021615Y-94436047D02*
X183973996Y-94626523D01*
X183973996Y-94626523D02*
X183926377Y-94721761D01*
X183926377Y-94721761D02*
X183831139Y-94817000D01*
X183831139Y-94817000D02*
X183688282Y-94864619D01*
X183688282Y-94864619D02*
X183450187Y-94864619D01*
X181483430Y-83456315D02*
X181483430Y-82456315D01*
X181483430Y-82456315D02*
X181864382Y-82456315D01*
X181864382Y-82456315D02*
X181959620Y-82503934D01*
X181959620Y-82503934D02*
X182007239Y-82551553D01*
X182007239Y-82551553D02*
X182054858Y-82646791D01*
X182054858Y-82646791D02*
X182054858Y-82789648D01*
X182054858Y-82789648D02*
X182007239Y-82884886D01*
X182007239Y-82884886D02*
X181959620Y-82932505D01*
X181959620Y-82932505D02*
X181864382Y-82980124D01*
X181864382Y-82980124D02*
X181483430Y-82980124D01*
X182388192Y-82456315D02*
X182626287Y-83456315D01*
X182626287Y-83456315D02*
X182816763Y-82742029D01*
X182816763Y-82742029D02*
X183007239Y-83456315D01*
X183007239Y-83456315D02*
X183245335Y-82456315D01*
X184197715Y-83456315D02*
X183864382Y-82980124D01*
X183626287Y-83456315D02*
X183626287Y-82456315D01*
X183626287Y-82456315D02*
X184007239Y-82456315D01*
X184007239Y-82456315D02*
X184102477Y-82503934D01*
X184102477Y-82503934D02*
X184150096Y-82551553D01*
X184150096Y-82551553D02*
X184197715Y-82646791D01*
X184197715Y-82646791D02*
X184197715Y-82789648D01*
X184197715Y-82789648D02*
X184150096Y-82884886D01*
X184150096Y-82884886D02*
X184102477Y-82932505D01*
X184102477Y-82932505D02*
X184007239Y-82980124D01*
X184007239Y-82980124D02*
X183626287Y-82980124D01*
X155135380Y-108878758D02*
X155135380Y-108402568D01*
X155135380Y-108402568D02*
X156135380Y-108402568D01*
X156135380Y-109402568D02*
X156135380Y-109593044D01*
X156135380Y-109593044D02*
X156087761Y-109688282D01*
X156087761Y-109688282D02*
X155992523Y-109783520D01*
X155992523Y-109783520D02*
X155802047Y-109831139D01*
X155802047Y-109831139D02*
X155468714Y-109831139D01*
X155468714Y-109831139D02*
X155278238Y-109783520D01*
X155278238Y-109783520D02*
X155183000Y-109688282D01*
X155183000Y-109688282D02*
X155135380Y-109593044D01*
X155135380Y-109593044D02*
X155135380Y-109402568D01*
X155135380Y-109402568D02*
X155183000Y-109307330D01*
X155183000Y-109307330D02*
X155278238Y-109212092D01*
X155278238Y-109212092D02*
X155468714Y-109164473D01*
X155468714Y-109164473D02*
X155802047Y-109164473D01*
X155802047Y-109164473D02*
X155992523Y-109212092D01*
X155992523Y-109212092D02*
X156087761Y-109307330D01*
X156087761Y-109307330D02*
X156135380Y-109402568D01*
X156135380Y-110450187D02*
X156135380Y-110640663D01*
X156135380Y-110640663D02*
X156087761Y-110735901D01*
X156087761Y-110735901D02*
X155992523Y-110831139D01*
X155992523Y-110831139D02*
X155802047Y-110878758D01*
X155802047Y-110878758D02*
X155468714Y-110878758D01*
X155468714Y-110878758D02*
X155278238Y-110831139D01*
X155278238Y-110831139D02*
X155183000Y-110735901D01*
X155183000Y-110735901D02*
X155135380Y-110640663D01*
X155135380Y-110640663D02*
X155135380Y-110450187D01*
X155135380Y-110450187D02*
X155183000Y-110354949D01*
X155183000Y-110354949D02*
X155278238Y-110259711D01*
X155278238Y-110259711D02*
X155468714Y-110212092D01*
X155468714Y-110212092D02*
X155802047Y-110212092D01*
X155802047Y-110212092D02*
X155992523Y-110259711D01*
X155992523Y-110259711D02*
X156087761Y-110354949D01*
X156087761Y-110354949D02*
X156135380Y-110450187D01*
X155135380Y-111307330D02*
X156135380Y-111307330D01*
X156135380Y-111307330D02*
X156135380Y-111688282D01*
X156135380Y-111688282D02*
X156087761Y-111783520D01*
X156087761Y-111783520D02*
X156040142Y-111831139D01*
X156040142Y-111831139D02*
X155944904Y-111878758D01*
X155944904Y-111878758D02*
X155802047Y-111878758D01*
X155802047Y-111878758D02*
X155706809Y-111831139D01*
X155706809Y-111831139D02*
X155659190Y-111783520D01*
X155659190Y-111783520D02*
X155611571Y-111688282D01*
X155611571Y-111688282D02*
X155611571Y-111307330D01*
X155659190Y-112640663D02*
X155611571Y-112783520D01*
X155611571Y-112783520D02*
X155563952Y-112831139D01*
X155563952Y-112831139D02*
X155468714Y-112878758D01*
X155468714Y-112878758D02*
X155325857Y-112878758D01*
X155325857Y-112878758D02*
X155230619Y-112831139D01*
X155230619Y-112831139D02*
X155183000Y-112783520D01*
X155183000Y-112783520D02*
X155135380Y-112688282D01*
X155135380Y-112688282D02*
X155135380Y-112307330D01*
X155135380Y-112307330D02*
X156135380Y-112307330D01*
X156135380Y-112307330D02*
X156135380Y-112640663D01*
X156135380Y-112640663D02*
X156087761Y-112735901D01*
X156087761Y-112735901D02*
X156040142Y-112783520D01*
X156040142Y-112783520D02*
X155944904Y-112831139D01*
X155944904Y-112831139D02*
X155849666Y-112831139D01*
X155849666Y-112831139D02*
X155754428Y-112783520D01*
X155754428Y-112783520D02*
X155706809Y-112735901D01*
X155706809Y-112735901D02*
X155659190Y-112640663D01*
X155659190Y-112640663D02*
X155659190Y-112307330D01*
X155421095Y-113259711D02*
X155421095Y-113735901D01*
X155135380Y-113164473D02*
X156135380Y-113497806D01*
X156135380Y-113497806D02*
X155135380Y-113831139D01*
X155230619Y-114735901D02*
X155183000Y-114688282D01*
X155183000Y-114688282D02*
X155135380Y-114545425D01*
X155135380Y-114545425D02*
X155135380Y-114450187D01*
X155135380Y-114450187D02*
X155183000Y-114307330D01*
X155183000Y-114307330D02*
X155278238Y-114212092D01*
X155278238Y-114212092D02*
X155373476Y-114164473D01*
X155373476Y-114164473D02*
X155563952Y-114116854D01*
X155563952Y-114116854D02*
X155706809Y-114116854D01*
X155706809Y-114116854D02*
X155897285Y-114164473D01*
X155897285Y-114164473D02*
X155992523Y-114212092D01*
X155992523Y-114212092D02*
X156087761Y-114307330D01*
X156087761Y-114307330D02*
X156135380Y-114450187D01*
X156135380Y-114450187D02*
X156135380Y-114545425D01*
X156135380Y-114545425D02*
X156087761Y-114688282D01*
X156087761Y-114688282D02*
X156040142Y-114735901D01*
X155135380Y-115164473D02*
X156135380Y-115164473D01*
X155135380Y-115735901D02*
X155706809Y-115307330D01*
X156135380Y-115735901D02*
X155563952Y-115164473D01*
X155516333Y-116926378D02*
X155516333Y-117688283D01*
X155802047Y-118164473D02*
X155516333Y-118926378D01*
X155516333Y-118926378D02*
X155230619Y-118164473D01*
D11*
X142043232Y-98606857D02*
X142043232Y-95606857D01*
X142043232Y-97035428D02*
X143757518Y-97035428D01*
X143757518Y-98606857D02*
X143757518Y-95606857D01*
X146614661Y-98606857D02*
X145186089Y-98606857D01*
X145186089Y-98606857D02*
X145186089Y-95606857D01*
X147614660Y-97464000D02*
X149900375Y-97464000D01*
X151328946Y-96606857D02*
X153614661Y-97464000D01*
X153614661Y-97464000D02*
X151328946Y-98321142D01*
D12*
X177833333Y-100454819D02*
X177500000Y-99978628D01*
X177261905Y-100454819D02*
X177261905Y-99454819D01*
X177261905Y-99454819D02*
X177642857Y-99454819D01*
X177642857Y-99454819D02*
X177738095Y-99502438D01*
X177738095Y-99502438D02*
X177785714Y-99550057D01*
X177785714Y-99550057D02*
X177833333Y-99645295D01*
X177833333Y-99645295D02*
X177833333Y-99788152D01*
X177833333Y-99788152D02*
X177785714Y-99883390D01*
X177785714Y-99883390D02*
X177738095Y-99931009D01*
X177738095Y-99931009D02*
X177642857Y-99978628D01*
X177642857Y-99978628D02*
X177261905Y-99978628D01*
X178785714Y-100454819D02*
X178214286Y-100454819D01*
X178500000Y-100454819D02*
X178500000Y-99454819D01*
X178500000Y-99454819D02*
X178404762Y-99597676D01*
X178404762Y-99597676D02*
X178309524Y-99692914D01*
X178309524Y-99692914D02*
X178214286Y-99740533D01*
X166441666Y-96797319D02*
X166441666Y-97511604D01*
X166441666Y-97511604D02*
X166394047Y-97654461D01*
X166394047Y-97654461D02*
X166298809Y-97749700D01*
X166298809Y-97749700D02*
X166155952Y-97797319D01*
X166155952Y-97797319D02*
X166060714Y-97797319D01*
X167394047Y-96797319D02*
X166917857Y-96797319D01*
X166917857Y-96797319D02*
X166870238Y-97273509D01*
X166870238Y-97273509D02*
X166917857Y-97225890D01*
X166917857Y-97225890D02*
X167013095Y-97178271D01*
X167013095Y-97178271D02*
X167251190Y-97178271D01*
X167251190Y-97178271D02*
X167346428Y-97225890D01*
X167346428Y-97225890D02*
X167394047Y-97273509D01*
X167394047Y-97273509D02*
X167441666Y-97368747D01*
X167441666Y-97368747D02*
X167441666Y-97606842D01*
X167441666Y-97606842D02*
X167394047Y-97702080D01*
X167394047Y-97702080D02*
X167346428Y-97749700D01*
X167346428Y-97749700D02*
X167251190Y-97797319D01*
X167251190Y-97797319D02*
X167013095Y-97797319D01*
X167013095Y-97797319D02*
X166917857Y-97749700D01*
X166917857Y-97749700D02*
X166870238Y-97702080D01*
X177954819Y-89083333D02*
X178669104Y-89083333D01*
X178669104Y-89083333D02*
X178811961Y-89130952D01*
X178811961Y-89130952D02*
X178907200Y-89226190D01*
X178907200Y-89226190D02*
X178954819Y-89369047D01*
X178954819Y-89369047D02*
X178954819Y-89464285D01*
X177954819Y-88702380D02*
X177954819Y-88083333D01*
X177954819Y-88083333D02*
X178335771Y-88416666D01*
X178335771Y-88416666D02*
X178335771Y-88273809D01*
X178335771Y-88273809D02*
X178383390Y-88178571D01*
X178383390Y-88178571D02*
X178431009Y-88130952D01*
X178431009Y-88130952D02*
X178526247Y-88083333D01*
X178526247Y-88083333D02*
X178764342Y-88083333D01*
X178764342Y-88083333D02*
X178859580Y-88130952D01*
X178859580Y-88130952D02*
X178907200Y-88178571D01*
X178907200Y-88178571D02*
X178954819Y-88273809D01*
X178954819Y-88273809D02*
X178954819Y-88559523D01*
X178954819Y-88559523D02*
X178907200Y-88654761D01*
X178907200Y-88654761D02*
X178859580Y-88702380D01*
X181261905Y-100454819D02*
X181261905Y-99454819D01*
X181261905Y-99454819D02*
X181500000Y-99454819D01*
X181500000Y-99454819D02*
X181642857Y-99502438D01*
X181642857Y-99502438D02*
X181738095Y-99597676D01*
X181738095Y-99597676D02*
X181785714Y-99692914D01*
X181785714Y-99692914D02*
X181833333Y-99883390D01*
X181833333Y-99883390D02*
X181833333Y-100026247D01*
X181833333Y-100026247D02*
X181785714Y-100216723D01*
X181785714Y-100216723D02*
X181738095Y-100311961D01*
X181738095Y-100311961D02*
X181642857Y-100407200D01*
X181642857Y-100407200D02*
X181500000Y-100454819D01*
X181500000Y-100454819D02*
X181261905Y-100454819D01*
X182785714Y-100454819D02*
X182214286Y-100454819D01*
X182500000Y-100454819D02*
X182500000Y-99454819D01*
X182500000Y-99454819D02*
X182404762Y-99597676D01*
X182404762Y-99597676D02*
X182309524Y-99692914D01*
X182309524Y-99692914D02*
X182214286Y-99740533D01*
X172792134Y-100563961D02*
X172792134Y-101279388D01*
X172792134Y-101279388D02*
X172744439Y-101422473D01*
X172744439Y-101422473D02*
X172649049Y-101517864D01*
X172649049Y-101517864D02*
X172505963Y-101565559D01*
X172505963Y-101565559D02*
X172410573Y-101565559D01*
X173221390Y-100659351D02*
X173269085Y-100611656D01*
X173269085Y-100611656D02*
X173364476Y-100563961D01*
X173364476Y-100563961D02*
X173602951Y-100563961D01*
X173602951Y-100563961D02*
X173698342Y-100611656D01*
X173698342Y-100611656D02*
X173746037Y-100659351D01*
X173746037Y-100659351D02*
X173793732Y-100754741D01*
X173793732Y-100754741D02*
X173793732Y-100850132D01*
X173793732Y-100850132D02*
X173746037Y-100993217D01*
X173746037Y-100993217D02*
X173173695Y-101565559D01*
X173173695Y-101565559D02*
X173793732Y-101565559D01*
X151048134Y-118677461D02*
X151048134Y-119392888D01*
X151048134Y-119392888D02*
X151000439Y-119535973D01*
X151000439Y-119535973D02*
X150905049Y-119631364D01*
X150905049Y-119631364D02*
X150761963Y-119679059D01*
X150761963Y-119679059D02*
X150666573Y-119679059D01*
X152049732Y-119679059D02*
X151477390Y-119679059D01*
X151763561Y-119679059D02*
X151763561Y-118677461D01*
X151763561Y-118677461D02*
X151668171Y-118820546D01*
X151668171Y-118820546D02*
X151572780Y-118915936D01*
X151572780Y-118915936D02*
X151477390Y-118963632D01*
X163524095Y-108311200D02*
X163666952Y-108358819D01*
X163666952Y-108358819D02*
X163905047Y-108358819D01*
X163905047Y-108358819D02*
X164000285Y-108311200D01*
X164000285Y-108311200D02*
X164047904Y-108263580D01*
X164047904Y-108263580D02*
X164095523Y-108168342D01*
X164095523Y-108168342D02*
X164095523Y-108073104D01*
X164095523Y-108073104D02*
X164047904Y-107977866D01*
X164047904Y-107977866D02*
X164000285Y-107930247D01*
X164000285Y-107930247D02*
X163905047Y-107882628D01*
X163905047Y-107882628D02*
X163714571Y-107835009D01*
X163714571Y-107835009D02*
X163619333Y-107787390D01*
X163619333Y-107787390D02*
X163571714Y-107739771D01*
X163571714Y-107739771D02*
X163524095Y-107644533D01*
X163524095Y-107644533D02*
X163524095Y-107549295D01*
X163524095Y-107549295D02*
X163571714Y-107454057D01*
X163571714Y-107454057D02*
X163619333Y-107406438D01*
X163619333Y-107406438D02*
X163714571Y-107358819D01*
X163714571Y-107358819D02*
X163952666Y-107358819D01*
X163952666Y-107358819D02*
X164095523Y-107406438D01*
X165047904Y-108358819D02*
X164476476Y-108358819D01*
X164762190Y-108358819D02*
X164762190Y-107358819D01*
X164762190Y-107358819D02*
X164666952Y-107501676D01*
X164666952Y-107501676D02*
X164571714Y-107596914D01*
X164571714Y-107596914D02*
X164476476Y-107644533D01*
D13*
%TO.C,R1*%
X177745276Y-98522500D02*
X178254724Y-98522500D01*
X177745276Y-97477500D02*
X178254724Y-97477500D01*
D14*
%TO.C,J5*%
X169750000Y-83237500D02*
X169750000Y-94237500D01*
X169750000Y-94237500D02*
X140250000Y-94237500D01*
X140250000Y-94237500D02*
X140250000Y-83237500D01*
X140250000Y-83237500D02*
X169750000Y-83237500D01*
D15*
X167350000Y-94837500D02*
G75*
G02*
X167150000Y-94837500I-100000J0D01*
G01*
X167150000Y-94837500D02*
G75*
G02*
X167350000Y-94837500I100000J0D01*
G01*
D16*
%TO.C,J3*%
X176381000Y-93766500D02*
G75*
G02*
X175619000Y-93766500I-381000J0D01*
G01*
X175619000Y-93766500D02*
G75*
G02*
X176381000Y-93766500I381000J0D01*
G01*
D17*
X184125201Y-93131500D02*
X184125201Y-84368500D01*
X184125201Y-84368500D02*
X172873001Y-84368500D01*
X172873001Y-84368500D02*
X172873001Y-93131500D01*
X172873001Y-93131500D02*
X184125201Y-93131500D01*
D13*
%TO.C,D1*%
X181210000Y-98695000D02*
X183670000Y-98695000D01*
X183670000Y-97225000D02*
X181210000Y-97225000D01*
X183670000Y-98695000D02*
X183670000Y-97225000D01*
D14*
%TO.C,J2*%
X170880000Y-102350000D02*
X188620000Y-102350000D01*
X170880000Y-117650000D02*
X170880000Y-102350000D01*
X188620000Y-102350000D02*
X188620000Y-117650000D01*
X188620000Y-117650000D02*
X170880000Y-117650000D01*
D18*
X174850000Y-118890000D02*
G75*
G02*
X174450000Y-118890000I-200000J0D01*
G01*
X174450000Y-118890000D02*
G75*
G02*
X174850000Y-118890000I200000J0D01*
G01*
D14*
%TO.C,J1*%
X135380000Y-102350000D02*
X153120000Y-102350000D01*
X135380000Y-117650000D02*
X135380000Y-102350000D01*
X153120000Y-102350000D02*
X153120000Y-117650000D01*
X153120000Y-117650000D02*
X135380000Y-117650000D01*
D18*
X149550000Y-101110000D02*
G75*
G02*
X149150000Y-101110000I-200000J0D01*
G01*
X149150000Y-101110000D02*
G75*
G02*
X149550000Y-101110000I200000J0D01*
G01*
D14*
%TO.C,S1*%
X160200000Y-109500000D02*
X160200000Y-110580000D01*
X160200000Y-117420000D02*
X160200000Y-118500000D01*
X160200000Y-118500000D02*
X163800000Y-118500000D01*
X163800000Y-109500000D02*
X160200000Y-109500000D01*
X163800000Y-110580000D02*
X163800000Y-109500000D01*
X163800000Y-118500000D02*
X163800000Y-117420000D01*
D15*
X164850000Y-117840000D02*
G75*
G02*
X164650000Y-117840000I-100000J0D01*
G01*
X164650000Y-117840000D02*
G75*
G02*
X164850000Y-117840000I100000J0D01*
G01*
%TD*%
M02*
