M48
; DRILL file {KiCad 9.0.6} date 2026-02-16T10:38:36-0600
; FORMAT={-:-/ absolute / metric / decimal}
; #@! TF.CreationDate,2026-02-16T10:38:36-06:00
; #@! TF.GenerationSoftware,Kicad,Pcbnew,9.0.6
; #@! TF.FileFunction,Plated,1,2,PTH
FMAT,2
METRIC
; #@! TA.AperFunction,Plated,PTH,ViaDrill
T1C0.300
; #@! TA.AperFunction,Plated,PTH,ComponentDrill
T2C0.760
; #@! TA.AperFunction,Plated,PTH,ComponentDrill
T3C1.092
; #@! TA.AperFunction,Plated,PTH,ComponentDrill
T4C1.100
%
G90
G05
T1
X146.939Y-116.459
X156.464Y-116.586
X162.179Y-113.157
X167.767Y-116.586
T2
X149.35Y-105.555
X149.35Y-108.095
X149.35Y-110.635
X149.35Y-113.175
X151.89Y-106.825
X151.89Y-109.365
X151.89Y-111.905
X151.89Y-114.445
X172.11Y-105.555
X172.11Y-108.095
X172.11Y-110.635
X172.11Y-113.175
X174.65Y-106.825
X174.65Y-109.365
X174.65Y-111.905
X174.65Y-114.445
T3
X176.0Y-87.0
X176.0Y-90.5
X181.0Y-87.0
X181.0Y-90.5
T4
X142.75Y-86.237
X142.75Y-91.237
X146.25Y-86.237
X146.25Y-91.237
X149.75Y-86.237
X149.75Y-91.237
X153.25Y-86.237
X153.25Y-91.237
X156.75Y-86.237
X156.75Y-91.237
X160.25Y-86.237
X160.25Y-91.237
X163.75Y-86.237
X163.75Y-91.237
X167.25Y-86.237
X167.25Y-91.237
M30
