%TF.GenerationSoftware,KiCad,Pcbnew,9.0.6*%
%TF.CreationDate,2026-02-16T10:38:34-06:00*%
%TF.ProjectId,BackPorch,4261636b-506f-4726-9368-2e6b69636164,rev?*%
%TF.SameCoordinates,Original*%
%TF.FileFunction,Legend,Bot*%
%TF.FilePolarity,Positive*%
%FSLAX46Y46*%
G04 Gerber Fmt 4.6, Leading zero omitted, Abs format (unit mm)*
G04 Created by KiCad (PCBNEW 9.0.6) date 2026-02-16 10:38:34*
%MOMM*%
%LPD*%
G01*
G04 APERTURE LIST*
%ADD10C,0.000000*%
%ADD11C,0.132291*%
%ADD12C,0.198437*%
%ADD13C,0.264583*%
%ADD14C,0.330729*%
%ADD15C,0.200000*%
%ADD16C,0.508000*%
G04 APERTURE END LIST*
D10*
G36*
X166324310Y-107976994D02*
G01*
X166341106Y-107978271D01*
X166357658Y-107980374D01*
X166373945Y-107983283D01*
X166389946Y-107986976D01*
X166405640Y-107991432D01*
X166421007Y-107996632D01*
X166436026Y-108002554D01*
X166450676Y-108009177D01*
X166464937Y-108016481D01*
X166478786Y-108024444D01*
X166492205Y-108033047D01*
X166505172Y-108042268D01*
X166517666Y-108052086D01*
X166529666Y-108062481D01*
X166541152Y-108073432D01*
X166552103Y-108084918D01*
X166562498Y-108096918D01*
X166572316Y-108109412D01*
X166581537Y-108122379D01*
X166590140Y-108135798D01*
X166598103Y-108149648D01*
X166605407Y-108163908D01*
X166612030Y-108178558D01*
X166617952Y-108193577D01*
X166623152Y-108208944D01*
X166627608Y-108224638D01*
X166631301Y-108240639D01*
X166634210Y-108256926D01*
X166636313Y-108273477D01*
X166637590Y-108290273D01*
X166638021Y-108307292D01*
X166637590Y-108324311D01*
X166636313Y-108341107D01*
X166634210Y-108357658D01*
X166631301Y-108373945D01*
X166627608Y-108389946D01*
X166623152Y-108405640D01*
X166617952Y-108421007D01*
X166612030Y-108436026D01*
X166605407Y-108450676D01*
X166598103Y-108464936D01*
X166590140Y-108478786D01*
X166581537Y-108492205D01*
X166572316Y-108505172D01*
X166562498Y-108517666D01*
X166552103Y-108529666D01*
X166541152Y-108541152D01*
X166529666Y-108552103D01*
X166517666Y-108562498D01*
X166505172Y-108572316D01*
X166492205Y-108581537D01*
X166478786Y-108590140D01*
X166464937Y-108598103D01*
X166450676Y-108605407D01*
X166436026Y-108612030D01*
X166421007Y-108617952D01*
X166405640Y-108623152D01*
X166389946Y-108627608D01*
X166373945Y-108631301D01*
X166357658Y-108634210D01*
X166341106Y-108636313D01*
X166324310Y-108637590D01*
X166307291Y-108638021D01*
X166290272Y-108637590D01*
X166273476Y-108636313D01*
X166256924Y-108634210D01*
X166240637Y-108631301D01*
X166224636Y-108627608D01*
X166208942Y-108623152D01*
X166193575Y-108617952D01*
X166178556Y-108612030D01*
X166163906Y-108605407D01*
X166149646Y-108598103D01*
X166135796Y-108590140D01*
X166122377Y-108581537D01*
X166109410Y-108572316D01*
X166096916Y-108562498D01*
X166084916Y-108552103D01*
X166073430Y-108541152D01*
X166062479Y-108529666D01*
X166052084Y-108517666D01*
X166042266Y-108505172D01*
X166033045Y-108492205D01*
X166024442Y-108478786D01*
X166016479Y-108464936D01*
X166009175Y-108450676D01*
X166002552Y-108436026D01*
X165996630Y-108421007D01*
X165991430Y-108405640D01*
X165986974Y-108389946D01*
X165983281Y-108373945D01*
X165980372Y-108357658D01*
X165978269Y-108341107D01*
X165976992Y-108324311D01*
X165976562Y-108307292D01*
X165976992Y-108290273D01*
X165978269Y-108273477D01*
X165980372Y-108256926D01*
X165983281Y-108240639D01*
X165986974Y-108224638D01*
X165991430Y-108208944D01*
X165996630Y-108193577D01*
X166002552Y-108178558D01*
X166009175Y-108163908D01*
X166016479Y-108149648D01*
X166024442Y-108135798D01*
X166033045Y-108122379D01*
X166042266Y-108109412D01*
X166052084Y-108096918D01*
X166062479Y-108084918D01*
X166073430Y-108073432D01*
X166084916Y-108062481D01*
X166096916Y-108052086D01*
X166109410Y-108042268D01*
X166122377Y-108033047D01*
X166135796Y-108024444D01*
X166149646Y-108016481D01*
X166163906Y-108009177D01*
X166178556Y-108002554D01*
X166193575Y-107996632D01*
X166208942Y-107991432D01*
X166224636Y-107986976D01*
X166240637Y-107983283D01*
X166256924Y-107980374D01*
X166273476Y-107978271D01*
X166290272Y-107976994D01*
X166307291Y-107976564D01*
X166324310Y-107976994D01*
G37*
D11*
X164984374Y-110291667D02*
X165191861Y-110532842D01*
X165191862Y-110532842D02*
X165399350Y-110758397D01*
X165399351Y-110758397D02*
X165599230Y-110960909D01*
X165599230Y-110960909D02*
X165799110Y-111148925D01*
X165799110Y-111148925D02*
X165991879Y-111316522D01*
X165991879Y-111316522D02*
X166184648Y-111470636D01*
X166184649Y-111470636D02*
X166370907Y-111606736D01*
X166370908Y-111606736D02*
X166557166Y-111730249D01*
X166557166Y-111730249D02*
X166737622Y-111837909D01*
X166737623Y-111837909D02*
X166918078Y-111933754D01*
X166918079Y-111933754D02*
X167093561Y-112015625D01*
X167093561Y-112015625D02*
X167269043Y-112086323D01*
X167269043Y-112086323D02*
X167440498Y-112144607D01*
X167440498Y-112144607D02*
X167611952Y-112192225D01*
X167611953Y-112192225D02*
X167780435Y-112228627D01*
X167780436Y-112228627D02*
X167948919Y-112254729D01*
X167948919Y-112254729D02*
X168115572Y-112270415D01*
X168115572Y-112270415D02*
X168282222Y-112276025D01*
X168282224Y-112276025D02*
X168614252Y-112257162D01*
X168614254Y-112257162D02*
X168947413Y-112198030D01*
X168947414Y-112198030D02*
X169284045Y-112097378D01*
X169284045Y-112097378D02*
X169626349Y-111952868D01*
X169626349Y-111952868D02*
X169976334Y-111761159D01*
X169976335Y-111761159D02*
X170335788Y-111518000D01*
X170335789Y-111518000D02*
X170706269Y-111218322D01*
X170706269Y-111218322D02*
X171089110Y-110856324D01*
X171089110Y-110856324D02*
X171485446Y-110425543D01*
X171485446Y-110425543D02*
X171598957Y-110291667D01*
X163661458Y-108307292D02*
X163928192Y-108529336D01*
X163928193Y-108529336D02*
X164194927Y-108738210D01*
X164194927Y-108738210D02*
X164455304Y-108929402D01*
X164455305Y-108929402D02*
X164715682Y-109108043D01*
X164715683Y-109108043D02*
X164970208Y-109270538D01*
X164970208Y-109270538D02*
X165224733Y-109421041D01*
X165224733Y-109421041D02*
X165473967Y-109556795D01*
X165473968Y-109556795D02*
X165723202Y-109681049D01*
X165723203Y-109681049D02*
X165967773Y-109791799D01*
X165967773Y-109791799D02*
X166212343Y-109891476D01*
X166212343Y-109891476D02*
X166452931Y-109978726D01*
X166452932Y-109978726D02*
X166693520Y-110055262D01*
X166693520Y-110055262D02*
X166930867Y-110120266D01*
X166930867Y-110120266D02*
X167168213Y-110174842D01*
X167168214Y-110174842D02*
X167403107Y-110218587D01*
X167403108Y-110218587D02*
X167638001Y-110252117D01*
X167638001Y-110252117D02*
X167871267Y-110275307D01*
X167871268Y-110275307D02*
X168104533Y-110288425D01*
X168104534Y-110288425D02*
X168337024Y-110291475D01*
X168337024Y-110291476D02*
X168569511Y-110284520D01*
X168569514Y-110284520D02*
X169034660Y-110240569D01*
X169034661Y-110240569D02*
X169501683Y-110156145D01*
X169501684Y-110156145D02*
X169972248Y-110030244D01*
X169972249Y-110030244D02*
X170447950Y-109861303D01*
X170447951Y-109861303D02*
X170930293Y-109647232D01*
X170930294Y-109647232D02*
X171420677Y-109385440D01*
X171420678Y-109385440D02*
X171920386Y-109072875D01*
X171920386Y-109072875D02*
X172430583Y-108706057D01*
X172430584Y-108706057D02*
X172921875Y-108307292D01*
X164322916Y-106322917D02*
X164590400Y-106495230D01*
X164590400Y-106495230D02*
X164857884Y-106655525D01*
X164857884Y-106655525D02*
X165120038Y-106800964D01*
X165120038Y-106800964D02*
X165382191Y-106934858D01*
X165382191Y-106934858D02*
X165639603Y-107055098D01*
X165639603Y-107055098D02*
X165897013Y-107164207D01*
X165897014Y-107164207D02*
X166150325Y-107260713D01*
X166150326Y-107260713D02*
X166403639Y-107346440D01*
X166403639Y-107346440D02*
X166653546Y-107420452D01*
X166653546Y-107420452D02*
X166903452Y-107483973D01*
X166903453Y-107483973D02*
X167150694Y-107536493D01*
X167150694Y-107536493D02*
X167397936Y-107578745D01*
X167397936Y-107578745D02*
X167643289Y-107610524D01*
X167643290Y-107610524D02*
X167888643Y-107632190D01*
X167888644Y-107632190D02*
X168132913Y-107643715D01*
X168132913Y-107643716D02*
X168377176Y-107645218D01*
X168377183Y-107645218D02*
X168865188Y-107618206D01*
X168865189Y-107618206D02*
X169354297Y-107550993D01*
X169354298Y-107550993D02*
X169846120Y-107442886D01*
X169846120Y-107442886D02*
X170342214Y-107292678D01*
X170342214Y-107292678D02*
X170844066Y-107098663D01*
X170844066Y-107098663D02*
X171353074Y-106858665D01*
X171353074Y-106858665D02*
X171870535Y-106570070D01*
X171870536Y-106570070D02*
X172260416Y-106322917D01*
D10*
G36*
X170954518Y-105992618D02*
G01*
X170971314Y-105993895D01*
X170987866Y-105995998D01*
X171004152Y-105998907D01*
X171020153Y-106002600D01*
X171035848Y-106007056D01*
X171051215Y-106012256D01*
X171066234Y-106018178D01*
X171080884Y-106024801D01*
X171095144Y-106032105D01*
X171108994Y-106040068D01*
X171122413Y-106048671D01*
X171135380Y-106057892D01*
X171147873Y-106067710D01*
X171159874Y-106078105D01*
X171171360Y-106089056D01*
X171182311Y-106100542D01*
X171192706Y-106112542D01*
X171202524Y-106125036D01*
X171211745Y-106138003D01*
X171220348Y-106151422D01*
X171228311Y-106165272D01*
X171235615Y-106179532D01*
X171242238Y-106194182D01*
X171248160Y-106209201D01*
X171253360Y-106224568D01*
X171257816Y-106240262D01*
X171261509Y-106256263D01*
X171264418Y-106272550D01*
X171266521Y-106289102D01*
X171267798Y-106305898D01*
X171268229Y-106322917D01*
X171267798Y-106339936D01*
X171266521Y-106356732D01*
X171264418Y-106373284D01*
X171261509Y-106389571D01*
X171257816Y-106405572D01*
X171253360Y-106421266D01*
X171248160Y-106436633D01*
X171242238Y-106451652D01*
X171235615Y-106466302D01*
X171228311Y-106480562D01*
X171220348Y-106494412D01*
X171211745Y-106507831D01*
X171202524Y-106520798D01*
X171192706Y-106533291D01*
X171182311Y-106545292D01*
X171171360Y-106556778D01*
X171159874Y-106567729D01*
X171147873Y-106578124D01*
X171135380Y-106587942D01*
X171122413Y-106597163D01*
X171108994Y-106605765D01*
X171095144Y-106613729D01*
X171080884Y-106621032D01*
X171066234Y-106627655D01*
X171051215Y-106633577D01*
X171035848Y-106638777D01*
X171020153Y-106643233D01*
X171004152Y-106646926D01*
X170987866Y-106649835D01*
X170971314Y-106651938D01*
X170954518Y-106653215D01*
X170937499Y-106653646D01*
X170920480Y-106653215D01*
X170903684Y-106651938D01*
X170887132Y-106649835D01*
X170870845Y-106646926D01*
X170854844Y-106643233D01*
X170839150Y-106638777D01*
X170823783Y-106633577D01*
X170808764Y-106627655D01*
X170794114Y-106621032D01*
X170779854Y-106613729D01*
X170766004Y-106605765D01*
X170752585Y-106597163D01*
X170739618Y-106587942D01*
X170727124Y-106578124D01*
X170715124Y-106567729D01*
X170703638Y-106556778D01*
X170692687Y-106545292D01*
X170682292Y-106533291D01*
X170672474Y-106520798D01*
X170663253Y-106507831D01*
X170654650Y-106494412D01*
X170646687Y-106480562D01*
X170639383Y-106466302D01*
X170632760Y-106451652D01*
X170626838Y-106436633D01*
X170621638Y-106421266D01*
X170617182Y-106405572D01*
X170613489Y-106389571D01*
X170610580Y-106373284D01*
X170608477Y-106356732D01*
X170607200Y-106339936D01*
X170606770Y-106322917D01*
X170607200Y-106305898D01*
X170608477Y-106289102D01*
X170610580Y-106272550D01*
X170613489Y-106256263D01*
X170617182Y-106240262D01*
X170621638Y-106224568D01*
X170626838Y-106209201D01*
X170632760Y-106194182D01*
X170639383Y-106179532D01*
X170646687Y-106165272D01*
X170654650Y-106151422D01*
X170663253Y-106138003D01*
X170672474Y-106125036D01*
X170682292Y-106112542D01*
X170692687Y-106100542D01*
X170703638Y-106089056D01*
X170715124Y-106078105D01*
X170727124Y-106067710D01*
X170739618Y-106057892D01*
X170752585Y-106048671D01*
X170766004Y-106040068D01*
X170779854Y-106032105D01*
X170794114Y-106024801D01*
X170808764Y-106018178D01*
X170823783Y-106012256D01*
X170839150Y-106007056D01*
X170854844Y-106002600D01*
X170870845Y-105998907D01*
X170887132Y-105995998D01*
X170903684Y-105993895D01*
X170920480Y-105992618D01*
X170937499Y-105992188D01*
X170954518Y-105992618D01*
G37*
G36*
X167650631Y-110556767D02*
G01*
X167670786Y-110558300D01*
X167690648Y-110560823D01*
X167710192Y-110564314D01*
X167729393Y-110568745D01*
X167748226Y-110574093D01*
X167766667Y-110580333D01*
X167784689Y-110587439D01*
X167802270Y-110595386D01*
X167819382Y-110604151D01*
X167836002Y-110613707D01*
X167852104Y-110624030D01*
X167867664Y-110635095D01*
X167882657Y-110646877D01*
X167897057Y-110659351D01*
X167910841Y-110672492D01*
X167923982Y-110686275D01*
X167936456Y-110700675D01*
X167948238Y-110715668D01*
X167959303Y-110731228D01*
X167969626Y-110747330D01*
X167979182Y-110763950D01*
X167987946Y-110781062D01*
X167995894Y-110798642D01*
X168003000Y-110816665D01*
X168009240Y-110835105D01*
X168014588Y-110853939D01*
X168019019Y-110873140D01*
X168022510Y-110892684D01*
X168025033Y-110912546D01*
X168026566Y-110932701D01*
X168027082Y-110953124D01*
X168026566Y-110973547D01*
X168025033Y-110993703D01*
X168022510Y-111013565D01*
X168019019Y-111033109D01*
X168014588Y-111052310D01*
X168009240Y-111071144D01*
X168003000Y-111089584D01*
X167995894Y-111107607D01*
X167987946Y-111125187D01*
X167979182Y-111142300D01*
X167969626Y-111158919D01*
X167959303Y-111175022D01*
X167948238Y-111190582D01*
X167936456Y-111205575D01*
X167923982Y-111219975D01*
X167910841Y-111233758D01*
X167897057Y-111246899D01*
X167882657Y-111259373D01*
X167867664Y-111271155D01*
X167852104Y-111282220D01*
X167836002Y-111292543D01*
X167819382Y-111302099D01*
X167802270Y-111310864D01*
X167784689Y-111318811D01*
X167766667Y-111325917D01*
X167748226Y-111332157D01*
X167729393Y-111337505D01*
X167710192Y-111341936D01*
X167690648Y-111345427D01*
X167670786Y-111347950D01*
X167650631Y-111349483D01*
X167630208Y-111349999D01*
X167609785Y-111349483D01*
X167589630Y-111347950D01*
X167569768Y-111345427D01*
X167550224Y-111341936D01*
X167531023Y-111337505D01*
X167512190Y-111332157D01*
X167493749Y-111325917D01*
X167475726Y-111318811D01*
X167458146Y-111310864D01*
X167441034Y-111302099D01*
X167424414Y-111292543D01*
X167408311Y-111282220D01*
X167392751Y-111271155D01*
X167377759Y-111259373D01*
X167363358Y-111246899D01*
X167349575Y-111233758D01*
X167336434Y-111219975D01*
X167323960Y-111205575D01*
X167312178Y-111190582D01*
X167301113Y-111175022D01*
X167290790Y-111158919D01*
X167281233Y-111142300D01*
X167272469Y-111125187D01*
X167264521Y-111107607D01*
X167257415Y-111089584D01*
X167251175Y-111071144D01*
X167245827Y-111052310D01*
X167241396Y-111033109D01*
X167237906Y-111013565D01*
X167235382Y-110993703D01*
X167233849Y-110973547D01*
X167233333Y-110953124D01*
X167233849Y-110932701D01*
X167235382Y-110912546D01*
X167237906Y-110892684D01*
X167241396Y-110873140D01*
X167245827Y-110853939D01*
X167251175Y-110835105D01*
X167257415Y-110816665D01*
X167264521Y-110798642D01*
X167272469Y-110781062D01*
X167281233Y-110763950D01*
X167290790Y-110747330D01*
X167301113Y-110731228D01*
X167312178Y-110715668D01*
X167323960Y-110700675D01*
X167336434Y-110686275D01*
X167349575Y-110672492D01*
X167363358Y-110659351D01*
X167377759Y-110646877D01*
X167392751Y-110635095D01*
X167408311Y-110624030D01*
X167424414Y-110613707D01*
X167441034Y-110604151D01*
X167458146Y-110595386D01*
X167475726Y-110587439D01*
X167493749Y-110580333D01*
X167512190Y-110574093D01*
X167531023Y-110568745D01*
X167550224Y-110564314D01*
X167569768Y-110560823D01*
X167589630Y-110558300D01*
X167609785Y-110556767D01*
X167630208Y-110556251D01*
X167650631Y-110556767D01*
G37*
G36*
X169635006Y-108572392D02*
G01*
X169655161Y-108573925D01*
X169675023Y-108576448D01*
X169694567Y-108579939D01*
X169713768Y-108584370D01*
X169732601Y-108589718D01*
X169751042Y-108595958D01*
X169769064Y-108603064D01*
X169786645Y-108611011D01*
X169803757Y-108619776D01*
X169820377Y-108629332D01*
X169836479Y-108639655D01*
X169852039Y-108650720D01*
X169867032Y-108662502D01*
X169881432Y-108674976D01*
X169895216Y-108688117D01*
X169908357Y-108701900D01*
X169920831Y-108716300D01*
X169932613Y-108731293D01*
X169943678Y-108746853D01*
X169954001Y-108762956D01*
X169963557Y-108779576D01*
X169972321Y-108796688D01*
X169980269Y-108814268D01*
X169987375Y-108832291D01*
X169993615Y-108850732D01*
X169998963Y-108869565D01*
X170003394Y-108888766D01*
X170006885Y-108908310D01*
X170009408Y-108928172D01*
X170010941Y-108948328D01*
X170011457Y-108968751D01*
X170010941Y-108989174D01*
X170009408Y-109009329D01*
X170006885Y-109029191D01*
X170003394Y-109048735D01*
X169998963Y-109067936D01*
X169993615Y-109086770D01*
X169987375Y-109105210D01*
X169980269Y-109123233D01*
X169972321Y-109140813D01*
X169963557Y-109157925D01*
X169954001Y-109174545D01*
X169943678Y-109190647D01*
X169932613Y-109206207D01*
X169920831Y-109221200D01*
X169908357Y-109235600D01*
X169895216Y-109249383D01*
X169881432Y-109262524D01*
X169867032Y-109274998D01*
X169852039Y-109286780D01*
X169836479Y-109297845D01*
X169820377Y-109308168D01*
X169803757Y-109317724D01*
X169786645Y-109326489D01*
X169769064Y-109334436D01*
X169751042Y-109341542D01*
X169732601Y-109347782D01*
X169713768Y-109353130D01*
X169694567Y-109357561D01*
X169675023Y-109361052D01*
X169655161Y-109363575D01*
X169635006Y-109365108D01*
X169614583Y-109365624D01*
X169594160Y-109365108D01*
X169574005Y-109363575D01*
X169554143Y-109361052D01*
X169534599Y-109357561D01*
X169515398Y-109353130D01*
X169496564Y-109347782D01*
X169478124Y-109341542D01*
X169460101Y-109334436D01*
X169442521Y-109326489D01*
X169425408Y-109317724D01*
X169408788Y-109308168D01*
X169392686Y-109297845D01*
X169377126Y-109286780D01*
X169362133Y-109274998D01*
X169347733Y-109262524D01*
X169333950Y-109249383D01*
X169320809Y-109235600D01*
X169308335Y-109221200D01*
X169296553Y-109206207D01*
X169285488Y-109190647D01*
X169275165Y-109174545D01*
X169265608Y-109157925D01*
X169256844Y-109140813D01*
X169248896Y-109123233D01*
X169241790Y-109105210D01*
X169235550Y-109086770D01*
X169230202Y-109067936D01*
X169225771Y-109048735D01*
X169222281Y-109029191D01*
X169219757Y-109009329D01*
X169218224Y-108989174D01*
X169217708Y-108968751D01*
X169218224Y-108948328D01*
X169219757Y-108928172D01*
X169222281Y-108908310D01*
X169225771Y-108888766D01*
X169230202Y-108869565D01*
X169235550Y-108850732D01*
X169241790Y-108832291D01*
X169248896Y-108814268D01*
X169256844Y-108796688D01*
X169265608Y-108779576D01*
X169275165Y-108762956D01*
X169285488Y-108746853D01*
X169296553Y-108731293D01*
X169308335Y-108716300D01*
X169320809Y-108701900D01*
X169333950Y-108688117D01*
X169347733Y-108674976D01*
X169362133Y-108662502D01*
X169377126Y-108650720D01*
X169392686Y-108639655D01*
X169408788Y-108629332D01*
X169425408Y-108619776D01*
X169442521Y-108611011D01*
X169460101Y-108603064D01*
X169478124Y-108595958D01*
X169496564Y-108589718D01*
X169515398Y-108584370D01*
X169534599Y-108579939D01*
X169554143Y-108576448D01*
X169574005Y-108573925D01*
X169594160Y-108572392D01*
X169614583Y-108571876D01*
X169635006Y-108572392D01*
G37*
G36*
X168312089Y-106588017D02*
G01*
X168332244Y-106589550D01*
X168352106Y-106592074D01*
X168371650Y-106595564D01*
X168390851Y-106599995D01*
X168409684Y-106605343D01*
X168428125Y-106611583D01*
X168446148Y-106618689D01*
X168463728Y-106626637D01*
X168480840Y-106635401D01*
X168497460Y-106644957D01*
X168513563Y-106655281D01*
X168529123Y-106666345D01*
X168544115Y-106678127D01*
X168558516Y-106690601D01*
X168572299Y-106703742D01*
X168585440Y-106717526D01*
X168597914Y-106731926D01*
X168609696Y-106746919D01*
X168620761Y-106762479D01*
X168631084Y-106778581D01*
X168640641Y-106795201D01*
X168649405Y-106812314D01*
X168657353Y-106829894D01*
X168664459Y-106847916D01*
X168670699Y-106866357D01*
X168676047Y-106885190D01*
X168680478Y-106904391D01*
X168683969Y-106923935D01*
X168686492Y-106943797D01*
X168688025Y-106963952D01*
X168688541Y-106984375D01*
X168688025Y-107004798D01*
X168686492Y-107024953D01*
X168683969Y-107044815D01*
X168680478Y-107064359D01*
X168676047Y-107083560D01*
X168670699Y-107102393D01*
X168664459Y-107120834D01*
X168657353Y-107138857D01*
X168649405Y-107156437D01*
X168640641Y-107173549D01*
X168631084Y-107190169D01*
X168620761Y-107206271D01*
X168609696Y-107221831D01*
X168597914Y-107236824D01*
X168585440Y-107251224D01*
X168572299Y-107265008D01*
X168558516Y-107278149D01*
X168544115Y-107290623D01*
X168529123Y-107302405D01*
X168513563Y-107313470D01*
X168497460Y-107323793D01*
X168480840Y-107333349D01*
X168463728Y-107342113D01*
X168446148Y-107350061D01*
X168428125Y-107357167D01*
X168409684Y-107363407D01*
X168390851Y-107368755D01*
X168371650Y-107373186D01*
X168352106Y-107376677D01*
X168332244Y-107379200D01*
X168312089Y-107380733D01*
X168291666Y-107381249D01*
X168271243Y-107380733D01*
X168251088Y-107379200D01*
X168231226Y-107376677D01*
X168211682Y-107373186D01*
X168192481Y-107368755D01*
X168173648Y-107363407D01*
X168155207Y-107357167D01*
X168137184Y-107350061D01*
X168119604Y-107342113D01*
X168102492Y-107333349D01*
X168085872Y-107323793D01*
X168069769Y-107313470D01*
X168054209Y-107302405D01*
X168039217Y-107290623D01*
X168024816Y-107278149D01*
X168011033Y-107265008D01*
X167997892Y-107251224D01*
X167985418Y-107236824D01*
X167973636Y-107221831D01*
X167962571Y-107206271D01*
X167952248Y-107190169D01*
X167942691Y-107173549D01*
X167933927Y-107156437D01*
X167925979Y-107138857D01*
X167918873Y-107120834D01*
X167912633Y-107102393D01*
X167907285Y-107083560D01*
X167902854Y-107064359D01*
X167899364Y-107044815D01*
X167896840Y-107024953D01*
X167895307Y-107004798D01*
X167894791Y-106984375D01*
X167895307Y-106963952D01*
X167896840Y-106943797D01*
X167899364Y-106923935D01*
X167902854Y-106904391D01*
X167907285Y-106885190D01*
X167912633Y-106866357D01*
X167918873Y-106847916D01*
X167925979Y-106829894D01*
X167933927Y-106812314D01*
X167942691Y-106795201D01*
X167952248Y-106778581D01*
X167962571Y-106762479D01*
X167973636Y-106746919D01*
X167985418Y-106731926D01*
X167997892Y-106717526D01*
X168011033Y-106703742D01*
X168024816Y-106690601D01*
X168039217Y-106678127D01*
X168054209Y-106666345D01*
X168069769Y-106655281D01*
X168085872Y-106644957D01*
X168102492Y-106635401D01*
X168119604Y-106626637D01*
X168137184Y-106618689D01*
X168155207Y-106611583D01*
X168173648Y-106605343D01*
X168192481Y-106599995D01*
X168211682Y-106595564D01*
X168231226Y-106592074D01*
X168251088Y-106589550D01*
X168271243Y-106588017D01*
X168291666Y-106587501D01*
X168312089Y-106588017D01*
G37*
D12*
X173583332Y-105000000D02*
X171598957Y-105000000D01*
X171598957Y-102354167D01*
X173583332Y-102354167D01*
X173583332Y-105000000D01*
G36*
X173583332Y-105000000D02*
G01*
X171598957Y-105000000D01*
X171598957Y-102354167D01*
X173583332Y-102354167D01*
X173583332Y-105000000D01*
G37*
D13*
X163000000Y-105000000D02*
X173583332Y-105000000D01*
D10*
X163000000Y-105000000D02*
X173583332Y-105000000D01*
D11*
X171598957Y-103280209D02*
X173583332Y-103280209D01*
D10*
X171598957Y-103280209D02*
X173583332Y-103280209D01*
D12*
X170672915Y-102354167D02*
X169349999Y-102354167D01*
X169349999Y-101031250D01*
X170672915Y-101031250D01*
X170672915Y-102354167D01*
X167233333Y-102354167D02*
X165910416Y-102354167D01*
X165910416Y-101031250D01*
X167233333Y-101031250D01*
X167233333Y-102354167D01*
D10*
G36*
X171334373Y-99576042D02*
G01*
X170276041Y-99576042D01*
X170276041Y-97988542D01*
X171334373Y-97988542D01*
X171334373Y-99576042D01*
G37*
D13*
X172260416Y-100369792D02*
X164322916Y-100369792D01*
X168291666Y-97062501D01*
X172260416Y-100369792D01*
G36*
X172260416Y-100369792D02*
G01*
X164322916Y-100369792D01*
X168291666Y-97062501D01*
X172260416Y-100369792D01*
G37*
X171598957Y-105000000D02*
X164984374Y-105000000D01*
X164984374Y-100369792D01*
X171598957Y-100369792D01*
X171598957Y-105000000D01*
G36*
X171598957Y-105000000D02*
G01*
X164984374Y-105000000D01*
X164984374Y-100369792D01*
X171598957Y-100369792D01*
X171598957Y-105000000D01*
G37*
D14*
X168904360Y-92447785D02*
X169509011Y-92493763D01*
X170104870Y-92569479D01*
X170691191Y-92674185D01*
X171267223Y-92807133D01*
X171832220Y-92967574D01*
X172385434Y-93154761D01*
X172926116Y-93367945D01*
X173453518Y-93606378D01*
X173966892Y-93869313D01*
X174465489Y-94156000D01*
X174948563Y-94465693D01*
X175415365Y-94797642D01*
X175865146Y-95151101D01*
X176297159Y-95525320D01*
X176710656Y-95919552D01*
X177104888Y-96333049D01*
X177479107Y-96765061D01*
X177832566Y-97214843D01*
X178164515Y-97681644D01*
X178474208Y-98164718D01*
X178760896Y-98663316D01*
X179023830Y-99176690D01*
X179262264Y-99704092D01*
X179475448Y-100244774D01*
X179662635Y-100797987D01*
X179823076Y-101362985D01*
X179956023Y-101939017D01*
X180060729Y-102525337D01*
X180136445Y-103121197D01*
X180182424Y-103725848D01*
X180197916Y-104338542D01*
X180182424Y-104951236D01*
X180136445Y-105555887D01*
X180060729Y-106151746D01*
X179956023Y-106738067D01*
X179823076Y-107314099D01*
X179662635Y-107879096D01*
X179475448Y-108432310D01*
X179262264Y-108972992D01*
X179023830Y-109500394D01*
X178760896Y-110013768D01*
X178474208Y-110512365D01*
X178164515Y-110995439D01*
X177832566Y-111462241D01*
X177479107Y-111912022D01*
X177104888Y-112344035D01*
X176710656Y-112757532D01*
X176297159Y-113151764D01*
X175865146Y-113525983D01*
X175415365Y-113879442D01*
X174948563Y-114211391D01*
X174465489Y-114521084D01*
X173966892Y-114807772D01*
X173453518Y-115070706D01*
X172926116Y-115309140D01*
X172385434Y-115522324D01*
X171832220Y-115709511D01*
X171267223Y-115869952D01*
X170691191Y-116002899D01*
X170104870Y-116107605D01*
X169509011Y-116183321D01*
X168904360Y-116229300D01*
X168291666Y-116244792D01*
X167678972Y-116229300D01*
X167074321Y-116183321D01*
X166478461Y-116107605D01*
X165892141Y-116002899D01*
X165316109Y-115869952D01*
X164751111Y-115709511D01*
X164197898Y-115522324D01*
X163657216Y-115309140D01*
X163129814Y-115070706D01*
X162616440Y-114807772D01*
X162117842Y-114521084D01*
X161634768Y-114211391D01*
X161167967Y-113879442D01*
X160718185Y-113525983D01*
X160286173Y-113151764D01*
X159872676Y-112757532D01*
X159478444Y-112344035D01*
X159104225Y-111912022D01*
X158750766Y-111462241D01*
X158418817Y-110995439D01*
X158109124Y-110512365D01*
X157822437Y-110013768D01*
X157559502Y-109500394D01*
X157321069Y-108972992D01*
X157107885Y-108432310D01*
X156920698Y-107879096D01*
X156760257Y-107314099D01*
X156627309Y-106738067D01*
X156522603Y-106151746D01*
X156446887Y-105555887D01*
X156400909Y-104951236D01*
X156385417Y-104338542D01*
X156400909Y-103725848D01*
X156446887Y-103121197D01*
X156522603Y-102525337D01*
X156627309Y-101939017D01*
X156760257Y-101362985D01*
X156920698Y-100797987D01*
X157107885Y-100244774D01*
X157321069Y-99704092D01*
X157559502Y-99176690D01*
X157822437Y-98663316D01*
X158109124Y-98164718D01*
X158418817Y-97681644D01*
X158750766Y-97214843D01*
X159104225Y-96765061D01*
X159478444Y-96333049D01*
X159872676Y-95919552D01*
X160286173Y-95525320D01*
X160718185Y-95151101D01*
X161167967Y-94797642D01*
X161634768Y-94465693D01*
X162117842Y-94156000D01*
X162616440Y-93869313D01*
X163129814Y-93606378D01*
X163657216Y-93367945D01*
X164197898Y-93154761D01*
X164751111Y-92967574D01*
X165316109Y-92807133D01*
X165892141Y-92674185D01*
X166478461Y-92569479D01*
X167074321Y-92493763D01*
X167678972Y-92447785D01*
X168291666Y-92432293D01*
X168904360Y-92447785D01*
D15*
X157296993Y-95733465D02*
X157154136Y-95781084D01*
X157154136Y-95781084D02*
X157106517Y-95828703D01*
X157106517Y-95828703D02*
X157058898Y-95923941D01*
X157058898Y-95923941D02*
X157058898Y-96066798D01*
X157058898Y-96066798D02*
X157106517Y-96162036D01*
X157106517Y-96162036D02*
X157154136Y-96209656D01*
X157154136Y-96209656D02*
X157249374Y-96257275D01*
X157249374Y-96257275D02*
X157630326Y-96257275D01*
X157630326Y-96257275D02*
X157630326Y-95257275D01*
X157630326Y-95257275D02*
X157296993Y-95257275D01*
X157296993Y-95257275D02*
X157201755Y-95304894D01*
X157201755Y-95304894D02*
X157154136Y-95352513D01*
X157154136Y-95352513D02*
X157106517Y-95447751D01*
X157106517Y-95447751D02*
X157106517Y-95542989D01*
X157106517Y-95542989D02*
X157154136Y-95638227D01*
X157154136Y-95638227D02*
X157201755Y-95685846D01*
X157201755Y-95685846D02*
X157296993Y-95733465D01*
X157296993Y-95733465D02*
X157630326Y-95733465D01*
X156201755Y-96257275D02*
X156201755Y-95733465D01*
X156201755Y-95733465D02*
X156249374Y-95638227D01*
X156249374Y-95638227D02*
X156344612Y-95590608D01*
X156344612Y-95590608D02*
X156535088Y-95590608D01*
X156535088Y-95590608D02*
X156630326Y-95638227D01*
X156201755Y-96209656D02*
X156296993Y-96257275D01*
X156296993Y-96257275D02*
X156535088Y-96257275D01*
X156535088Y-96257275D02*
X156630326Y-96209656D01*
X156630326Y-96209656D02*
X156677945Y-96114417D01*
X156677945Y-96114417D02*
X156677945Y-96019179D01*
X156677945Y-96019179D02*
X156630326Y-95923941D01*
X156630326Y-95923941D02*
X156535088Y-95876322D01*
X156535088Y-95876322D02*
X156296993Y-95876322D01*
X156296993Y-95876322D02*
X156201755Y-95828703D01*
X155296993Y-96209656D02*
X155392231Y-96257275D01*
X155392231Y-96257275D02*
X155582707Y-96257275D01*
X155582707Y-96257275D02*
X155677945Y-96209656D01*
X155677945Y-96209656D02*
X155725564Y-96162036D01*
X155725564Y-96162036D02*
X155773183Y-96066798D01*
X155773183Y-96066798D02*
X155773183Y-95781084D01*
X155773183Y-95781084D02*
X155725564Y-95685846D01*
X155725564Y-95685846D02*
X155677945Y-95638227D01*
X155677945Y-95638227D02*
X155582707Y-95590608D01*
X155582707Y-95590608D02*
X155392231Y-95590608D01*
X155392231Y-95590608D02*
X155296993Y-95638227D01*
X154868421Y-96257275D02*
X154868421Y-95257275D01*
X154773183Y-95876322D02*
X154487469Y-96257275D01*
X154487469Y-95590608D02*
X154868421Y-95971560D01*
X154058897Y-95590608D02*
X154058897Y-96590608D01*
X154058897Y-95638227D02*
X153963659Y-95590608D01*
X153963659Y-95590608D02*
X153773183Y-95590608D01*
X153773183Y-95590608D02*
X153677945Y-95638227D01*
X153677945Y-95638227D02*
X153630326Y-95685846D01*
X153630326Y-95685846D02*
X153582707Y-95781084D01*
X153582707Y-95781084D02*
X153582707Y-96066798D01*
X153582707Y-96066798D02*
X153630326Y-96162036D01*
X153630326Y-96162036D02*
X153677945Y-96209656D01*
X153677945Y-96209656D02*
X153773183Y-96257275D01*
X153773183Y-96257275D02*
X153963659Y-96257275D01*
X153963659Y-96257275D02*
X154058897Y-96209656D01*
X153011278Y-96257275D02*
X153106516Y-96209656D01*
X153106516Y-96209656D02*
X153154135Y-96162036D01*
X153154135Y-96162036D02*
X153201754Y-96066798D01*
X153201754Y-96066798D02*
X153201754Y-95781084D01*
X153201754Y-95781084D02*
X153154135Y-95685846D01*
X153154135Y-95685846D02*
X153106516Y-95638227D01*
X153106516Y-95638227D02*
X153011278Y-95590608D01*
X153011278Y-95590608D02*
X152868421Y-95590608D01*
X152868421Y-95590608D02*
X152773183Y-95638227D01*
X152773183Y-95638227D02*
X152725564Y-95685846D01*
X152725564Y-95685846D02*
X152677945Y-95781084D01*
X152677945Y-95781084D02*
X152677945Y-96066798D01*
X152677945Y-96066798D02*
X152725564Y-96162036D01*
X152725564Y-96162036D02*
X152773183Y-96209656D01*
X152773183Y-96209656D02*
X152868421Y-96257275D01*
X152868421Y-96257275D02*
X153011278Y-96257275D01*
X152249373Y-96257275D02*
X152249373Y-95590608D01*
X152249373Y-95781084D02*
X152201754Y-95685846D01*
X152201754Y-95685846D02*
X152154135Y-95638227D01*
X152154135Y-95638227D02*
X152058897Y-95590608D01*
X152058897Y-95590608D02*
X151963659Y-95590608D01*
X151201754Y-96209656D02*
X151296992Y-96257275D01*
X151296992Y-96257275D02*
X151487468Y-96257275D01*
X151487468Y-96257275D02*
X151582706Y-96209656D01*
X151582706Y-96209656D02*
X151630325Y-96162036D01*
X151630325Y-96162036D02*
X151677944Y-96066798D01*
X151677944Y-96066798D02*
X151677944Y-95781084D01*
X151677944Y-95781084D02*
X151630325Y-95685846D01*
X151630325Y-95685846D02*
X151582706Y-95638227D01*
X151582706Y-95638227D02*
X151487468Y-95590608D01*
X151487468Y-95590608D02*
X151296992Y-95590608D01*
X151296992Y-95590608D02*
X151201754Y-95638227D01*
X150773182Y-96257275D02*
X150773182Y-95257275D01*
X150344611Y-96257275D02*
X150344611Y-95733465D01*
X150344611Y-95733465D02*
X150392230Y-95638227D01*
X150392230Y-95638227D02*
X150487468Y-95590608D01*
X150487468Y-95590608D02*
X150630325Y-95590608D01*
X150630325Y-95590608D02*
X150725563Y-95638227D01*
X150725563Y-95638227D02*
X150773182Y-95685846D01*
X148630325Y-96257275D02*
X149106515Y-96257275D01*
X149106515Y-96257275D02*
X149106515Y-95257275D01*
X148296991Y-96257275D02*
X148296991Y-95590608D01*
X148296991Y-95257275D02*
X148344610Y-95304894D01*
X148344610Y-95304894D02*
X148296991Y-95352513D01*
X148296991Y-95352513D02*
X148249372Y-95304894D01*
X148249372Y-95304894D02*
X148296991Y-95257275D01*
X148296991Y-95257275D02*
X148296991Y-95352513D01*
X147963658Y-95590608D02*
X147582706Y-95590608D01*
X147820801Y-95257275D02*
X147820801Y-96114417D01*
X147820801Y-96114417D02*
X147773182Y-96209656D01*
X147773182Y-96209656D02*
X147677944Y-96257275D01*
X147677944Y-96257275D02*
X147582706Y-96257275D01*
X146868420Y-96209656D02*
X146963658Y-96257275D01*
X146963658Y-96257275D02*
X147154134Y-96257275D01*
X147154134Y-96257275D02*
X147249372Y-96209656D01*
X147249372Y-96209656D02*
X147296991Y-96114417D01*
X147296991Y-96114417D02*
X147296991Y-95733465D01*
X147296991Y-95733465D02*
X147249372Y-95638227D01*
X147249372Y-95638227D02*
X147154134Y-95590608D01*
X147154134Y-95590608D02*
X146963658Y-95590608D01*
X146963658Y-95590608D02*
X146868420Y-95638227D01*
X146868420Y-95638227D02*
X146820801Y-95733465D01*
X146820801Y-95733465D02*
X146820801Y-95828703D01*
X146820801Y-95828703D02*
X147296991Y-95923941D01*
X157296993Y-97343409D02*
X157630326Y-97343409D01*
X157630326Y-97867219D02*
X157630326Y-96867219D01*
X157630326Y-96867219D02*
X157154136Y-96867219D01*
X156773183Y-97867219D02*
X156773183Y-96867219D01*
X156773183Y-96867219D02*
X156439850Y-97581504D01*
X156439850Y-97581504D02*
X156106517Y-96867219D01*
X156106517Y-96867219D02*
X156106517Y-97867219D01*
X154916040Y-97819600D02*
X154773183Y-97867219D01*
X154773183Y-97867219D02*
X154535088Y-97867219D01*
X154535088Y-97867219D02*
X154439850Y-97819600D01*
X154439850Y-97819600D02*
X154392231Y-97771980D01*
X154392231Y-97771980D02*
X154344612Y-97676742D01*
X154344612Y-97676742D02*
X154344612Y-97581504D01*
X154344612Y-97581504D02*
X154392231Y-97486266D01*
X154392231Y-97486266D02*
X154439850Y-97438647D01*
X154439850Y-97438647D02*
X154535088Y-97391028D01*
X154535088Y-97391028D02*
X154725564Y-97343409D01*
X154725564Y-97343409D02*
X154820802Y-97295790D01*
X154820802Y-97295790D02*
X154868421Y-97248171D01*
X154868421Y-97248171D02*
X154916040Y-97152933D01*
X154916040Y-97152933D02*
X154916040Y-97057695D01*
X154916040Y-97057695D02*
X154868421Y-96962457D01*
X154868421Y-96962457D02*
X154820802Y-96914838D01*
X154820802Y-96914838D02*
X154725564Y-96867219D01*
X154725564Y-96867219D02*
X154487469Y-96867219D01*
X154487469Y-96867219D02*
X154344612Y-96914838D01*
X154058897Y-97200552D02*
X153677945Y-97200552D01*
X153916040Y-96867219D02*
X153916040Y-97724361D01*
X153916040Y-97724361D02*
X153868421Y-97819600D01*
X153868421Y-97819600D02*
X153773183Y-97867219D01*
X153773183Y-97867219D02*
X153677945Y-97867219D01*
X152963659Y-97819600D02*
X153058897Y-97867219D01*
X153058897Y-97867219D02*
X153249373Y-97867219D01*
X153249373Y-97867219D02*
X153344611Y-97819600D01*
X153344611Y-97819600D02*
X153392230Y-97724361D01*
X153392230Y-97724361D02*
X153392230Y-97343409D01*
X153392230Y-97343409D02*
X153344611Y-97248171D01*
X153344611Y-97248171D02*
X153249373Y-97200552D01*
X153249373Y-97200552D02*
X153058897Y-97200552D01*
X153058897Y-97200552D02*
X152963659Y-97248171D01*
X152963659Y-97248171D02*
X152916040Y-97343409D01*
X152916040Y-97343409D02*
X152916040Y-97438647D01*
X152916040Y-97438647D02*
X153392230Y-97533885D01*
X152487468Y-97867219D02*
X152487468Y-97200552D01*
X152487468Y-97295790D02*
X152439849Y-97248171D01*
X152439849Y-97248171D02*
X152344611Y-97200552D01*
X152344611Y-97200552D02*
X152201754Y-97200552D01*
X152201754Y-97200552D02*
X152106516Y-97248171D01*
X152106516Y-97248171D02*
X152058897Y-97343409D01*
X152058897Y-97343409D02*
X152058897Y-97867219D01*
X152058897Y-97343409D02*
X152011278Y-97248171D01*
X152011278Y-97248171D02*
X151916040Y-97200552D01*
X151916040Y-97200552D02*
X151773183Y-97200552D01*
X151773183Y-97200552D02*
X151677944Y-97248171D01*
X151677944Y-97248171D02*
X151630325Y-97343409D01*
X151630325Y-97343409D02*
X151630325Y-97867219D01*
X150439849Y-97581504D02*
X149963659Y-97581504D01*
X150535087Y-97867219D02*
X150201754Y-96867219D01*
X150201754Y-96867219D02*
X149868421Y-97867219D01*
X149392230Y-97867219D02*
X149487468Y-97819600D01*
X149487468Y-97819600D02*
X149535087Y-97724361D01*
X149535087Y-97724361D02*
X149535087Y-96867219D01*
X148868420Y-97867219D02*
X148963658Y-97819600D01*
X148963658Y-97819600D02*
X149011277Y-97724361D01*
X149011277Y-97724361D02*
X149011277Y-96867219D01*
X148487467Y-97867219D02*
X148487467Y-97200552D01*
X148487467Y-96867219D02*
X148535086Y-96914838D01*
X148535086Y-96914838D02*
X148487467Y-96962457D01*
X148487467Y-96962457D02*
X148439848Y-96914838D01*
X148439848Y-96914838D02*
X148487467Y-96867219D01*
X148487467Y-96867219D02*
X148487467Y-96962457D01*
X147582706Y-97867219D02*
X147582706Y-97343409D01*
X147582706Y-97343409D02*
X147630325Y-97248171D01*
X147630325Y-97248171D02*
X147725563Y-97200552D01*
X147725563Y-97200552D02*
X147916039Y-97200552D01*
X147916039Y-97200552D02*
X148011277Y-97248171D01*
X147582706Y-97819600D02*
X147677944Y-97867219D01*
X147677944Y-97867219D02*
X147916039Y-97867219D01*
X147916039Y-97867219D02*
X148011277Y-97819600D01*
X148011277Y-97819600D02*
X148058896Y-97724361D01*
X148058896Y-97724361D02*
X148058896Y-97629123D01*
X148058896Y-97629123D02*
X148011277Y-97533885D01*
X148011277Y-97533885D02*
X147916039Y-97486266D01*
X147916039Y-97486266D02*
X147677944Y-97486266D01*
X147677944Y-97486266D02*
X147582706Y-97438647D01*
X147106515Y-97200552D02*
X147106515Y-97867219D01*
X147106515Y-97295790D02*
X147058896Y-97248171D01*
X147058896Y-97248171D02*
X146963658Y-97200552D01*
X146963658Y-97200552D02*
X146820801Y-97200552D01*
X146820801Y-97200552D02*
X146725563Y-97248171D01*
X146725563Y-97248171D02*
X146677944Y-97343409D01*
X146677944Y-97343409D02*
X146677944Y-97867219D01*
X145773182Y-97819600D02*
X145868420Y-97867219D01*
X145868420Y-97867219D02*
X146058896Y-97867219D01*
X146058896Y-97867219D02*
X146154134Y-97819600D01*
X146154134Y-97819600D02*
X146201753Y-97771980D01*
X146201753Y-97771980D02*
X146249372Y-97676742D01*
X146249372Y-97676742D02*
X146249372Y-97391028D01*
X146249372Y-97391028D02*
X146201753Y-97295790D01*
X146201753Y-97295790D02*
X146154134Y-97248171D01*
X146154134Y-97248171D02*
X146058896Y-97200552D01*
X146058896Y-97200552D02*
X145868420Y-97200552D01*
X145868420Y-97200552D02*
X145773182Y-97248171D01*
X144963658Y-97819600D02*
X145058896Y-97867219D01*
X145058896Y-97867219D02*
X145249372Y-97867219D01*
X145249372Y-97867219D02*
X145344610Y-97819600D01*
X145344610Y-97819600D02*
X145392229Y-97724361D01*
X145392229Y-97724361D02*
X145392229Y-97343409D01*
X145392229Y-97343409D02*
X145344610Y-97248171D01*
X145344610Y-97248171D02*
X145249372Y-97200552D01*
X145249372Y-97200552D02*
X145058896Y-97200552D01*
X145058896Y-97200552D02*
X144963658Y-97248171D01*
X144963658Y-97248171D02*
X144916039Y-97343409D01*
X144916039Y-97343409D02*
X144916039Y-97438647D01*
X144916039Y-97438647D02*
X145392229Y-97533885D01*
X143773181Y-96962457D02*
X143725562Y-96914838D01*
X143725562Y-96914838D02*
X143630324Y-96867219D01*
X143630324Y-96867219D02*
X143392229Y-96867219D01*
X143392229Y-96867219D02*
X143296991Y-96914838D01*
X143296991Y-96914838D02*
X143249372Y-96962457D01*
X143249372Y-96962457D02*
X143201753Y-97057695D01*
X143201753Y-97057695D02*
X143201753Y-97152933D01*
X143201753Y-97152933D02*
X143249372Y-97295790D01*
X143249372Y-97295790D02*
X143820800Y-97867219D01*
X143820800Y-97867219D02*
X143201753Y-97867219D01*
X142582705Y-96867219D02*
X142487467Y-96867219D01*
X142487467Y-96867219D02*
X142392229Y-96914838D01*
X142392229Y-96914838D02*
X142344610Y-96962457D01*
X142344610Y-96962457D02*
X142296991Y-97057695D01*
X142296991Y-97057695D02*
X142249372Y-97248171D01*
X142249372Y-97248171D02*
X142249372Y-97486266D01*
X142249372Y-97486266D02*
X142296991Y-97676742D01*
X142296991Y-97676742D02*
X142344610Y-97771980D01*
X142344610Y-97771980D02*
X142392229Y-97819600D01*
X142392229Y-97819600D02*
X142487467Y-97867219D01*
X142487467Y-97867219D02*
X142582705Y-97867219D01*
X142582705Y-97867219D02*
X142677943Y-97819600D01*
X142677943Y-97819600D02*
X142725562Y-97771980D01*
X142725562Y-97771980D02*
X142773181Y-97676742D01*
X142773181Y-97676742D02*
X142820800Y-97486266D01*
X142820800Y-97486266D02*
X142820800Y-97248171D01*
X142820800Y-97248171D02*
X142773181Y-97057695D01*
X142773181Y-97057695D02*
X142725562Y-96962457D01*
X142725562Y-96962457D02*
X142677943Y-96914838D01*
X142677943Y-96914838D02*
X142582705Y-96867219D01*
X141868419Y-96962457D02*
X141820800Y-96914838D01*
X141820800Y-96914838D02*
X141725562Y-96867219D01*
X141725562Y-96867219D02*
X141487467Y-96867219D01*
X141487467Y-96867219D02*
X141392229Y-96914838D01*
X141392229Y-96914838D02*
X141344610Y-96962457D01*
X141344610Y-96962457D02*
X141296991Y-97057695D01*
X141296991Y-97057695D02*
X141296991Y-97152933D01*
X141296991Y-97152933D02*
X141344610Y-97295790D01*
X141344610Y-97295790D02*
X141916038Y-97867219D01*
X141916038Y-97867219D02*
X141296991Y-97867219D01*
X140439848Y-96867219D02*
X140630324Y-96867219D01*
X140630324Y-96867219D02*
X140725562Y-96914838D01*
X140725562Y-96914838D02*
X140773181Y-96962457D01*
X140773181Y-96962457D02*
X140868419Y-97105314D01*
X140868419Y-97105314D02*
X140916038Y-97295790D01*
X140916038Y-97295790D02*
X140916038Y-97676742D01*
X140916038Y-97676742D02*
X140868419Y-97771980D01*
X140868419Y-97771980D02*
X140820800Y-97819600D01*
X140820800Y-97819600D02*
X140725562Y-97867219D01*
X140725562Y-97867219D02*
X140535086Y-97867219D01*
X140535086Y-97867219D02*
X140439848Y-97819600D01*
X140439848Y-97819600D02*
X140392229Y-97771980D01*
X140392229Y-97771980D02*
X140344610Y-97676742D01*
X140344610Y-97676742D02*
X140344610Y-97438647D01*
X140344610Y-97438647D02*
X140392229Y-97343409D01*
X140392229Y-97343409D02*
X140439848Y-97295790D01*
X140439848Y-97295790D02*
X140535086Y-97248171D01*
X140535086Y-97248171D02*
X140725562Y-97248171D01*
X140725562Y-97248171D02*
X140820800Y-97295790D01*
X140820800Y-97295790D02*
X140868419Y-97343409D01*
X140868419Y-97343409D02*
X140916038Y-97438647D01*
D16*
%TO.C,J3*%
X176381000Y-93766500D02*
G75*
G02*
X175619000Y-93766500I-381000J0D01*
G01*
X175619000Y-93766500D02*
G75*
G02*
X176381000Y-93766500I381000J0D01*
G01*
%TD*%
M02*
