<svg width="400" height="400" viewBox="0 0 200 200" xmlns="http://www.w3.org/2000/svg">
  <circle cx="100" cy="100" r="90" fill="none" stroke="black" stroke-width="2.5"/>

  <rect x="75" y="70" width="50" height="35" fill="white" stroke="black" stroke-width="2"/>
  <path d="M70 70 L100 45 L130 70 Z" fill="white" stroke="black" stroke-width="2"/>
  <rect x="115" y="52" width="8" height="12" fill="black"/>
  <rect x="82" y="75" width="10" height="10" fill="none" stroke="black" stroke-width="1.5"/>
  <rect x="108" y="75" width="10" height="10" fill="none" stroke="black" stroke-width="1.5"/>
  <rect x="125" y="85" width="15" height="20" fill="white" stroke="black" stroke-width="1.5"/>
  <line x1="125" y1="92" x2="140" y2="92" stroke="black" stroke-width="1"/>

  <line x1="60" y1="105" x2="140" y2="105" stroke="black" stroke-width="2" stroke-linecap="round"/>

  <g fill="black">
    <circle cx="100" cy="120" r="3"/>
    <circle cx="110" cy="135" r="3"/>
    <circle cx="95" cy="150" r="3"/>
    <circle cx="120" cy="115" r="2.5"/>
    <circle cx="85" cy="130" r="2.5"/>
  </g>

  <g fill="none" stroke="black" stroke-width="1" stroke-dasharray="3,3">
    <path d="M70 115 Q100 135 130 115" opacity="0.6"/>
    <path d="M65 130 Q100 160 135 130" opacity="0.4"/>
    <path d="M75 145 Q100 175 125 145" opacity="0.2"/>
  </g>
</svg>